PathFileType	4	(X/Y/Z)	s01c0202.trc
DataRate	CameraRate	NumFrames	NumMarkers	Units	OrigDataRate	OrigDataStartFrame	OrigNumFrames
200	200	4	48	mm	200	750	2000
Frame#	Time	racr			lacr			c7			jug			rlel			rdr			llel			ldr			s2			lic			ric			lasi			rasi			rpsi			lpsi			rgt			lgt			rth1			rth2			rth3			rth4			rlfc			rsh1			rsh2			rsh3			rsh4			rlmal			rmmal			rcal			rtoe			rmt5			lth1			lth2			lth4			lth3			llfc			lsh1			lsh2			lsh3			lsh4			llmal			lmmal			lcal			ltoe			lmt5			SBIKE			LBIKE			RBIKE			
		X1	Y1	Z1	X2	Y2	Z2	X3	Y3	Z3	X4	Y4	Z4	X5	Y5	Z5	X6	Y6	Z6	X7	Y7	Z7	X8	Y8	Z8	X9	Y9	Z9	X10	Y10	Z10	X11	Y11	Z11	X12	Y12	Z12	X13	Y13	Z13	X14	Y14	Z14	X15	Y15	Z15	X16	Y16	Z16	X17	Y17	Z17	X18	Y18	Z18	X19	Y19	Z19	X20	Y20	Z20	X21	Y21	Z21	X22	Y22	Z22	X23	Y23	Z23	X24	Y24	Z24	X25	Y25	Z25	X26	Y26	Z26	X27	Y27	Z27	X28	Y28	Z28	X29	Y29	Z29	X30	Y30	Z30	X31	Y31	Z31	X32	Y32	Z32	X33	Y33	Z33	X34	Y34	Z34	X35	Y35	Z35	X36	Y36	Z36	X37	Y37	Z37	X38	Y38	Z38	X39	Y39	Z39	X40	Y40	Z40	X41	Y41	Z41	X42	Y42	Z42	X43	Y43	Z43	X44	Y44	Z44	X45	Y45	Z45	X46	Y46	Z46	X47	Y47	Z47	X48	Y48	Z48	
750	3.7500	476.942850	1260.059230	-74.049708	510.472408	1245.867066	-428.143835	460.860807	1364.981008	-255.803694	453.329030	1196.781185	-254.715380	456.202305	992.079623	30.949354	667.832544	886.944605	-60.329587	479.733367	1009.369370	-590.750263	657.112721	885.904685	-470.665053	-62.169008	1149.983343	-266.246107	103.586590	1165.838572	-442.000635	85.860873	1158.117742	-106.373699	108.925214	1116.794539	-415.735958	118.344708	1116.147159	-137.457324	-35.390327	1189.412410	-215.494305	-38.281004	1191.176984	-321.319467	43.441059	1037.972173	-83.631181	60.987718	1043.881415	-465.968841	119.554366	925.224831	-61.992374	170.400782	860.294627	-68.239593	221.203359	786.214959	-79.308012	215.609326	892.441242	-79.737678	268.387717	681.515662	-99.130056	243.773849	567.569619	-65.025944	241.068160	482.818731	-69.986273	229.781766	395.118027	-80.989515	290.141280	481.226845	-106.098228	204.984463	273.999539	-103.737319	245.040049	287.740923	-178.426435	164.208257	252.373265	-156.581211	427.311256	190.959943	-142.141021	319.886216	174.585328	-72.546954	163.577303	977.605929	-462.100122	252.871945	970.156493	-465.065401	259.372802	1022.995667	-453.192720	336.365897	952.430704	-449.742056	428.492430	879.951915	-423.018912	335.643290	822.009106	-453.158766	274.543057	761.652101	-443.180983	212.137538	704.185659	-428.878858	314.588039	726.313607	-412.863408	121.945253	621.984193	-413.499769	150.166330	607.087018	-330.813632	62.306721	622.704166	-366.939843	257.434619	423.105942	-382.283748	163.752853	479.489953	-444.269465	-229.566857	890.772051	-255.610690	-22.766597	80.421567	-456.475743	-22.828159	80.268532	-56.303398	
751	3.7550	479.079304	1260.731282	-76.572872	509.745160	1247.072736	-430.635609	461.600847	1366.065152	-257.870150	454.013818	1198.139511	-256.950897	457.944513	993.473283	30.082739	668.269508	887.187815	-60.599782	478.740273	1009.115605	-591.062734	656.598743	886.547357	-470.543591	-61.797379	1150.386169	-264.569423	102.984580	1168.502427	-441.315293	87.042005	1158.031430	-106.046969	109.261532	1118.546944	-414.861785	119.067323	1116.306140	-136.626868	-34.930991	1189.585729	-213.557101	-37.996605	1191.869998	-319.259875	43.366086	1037.346145	-82.719344	61.560118	1046.730635	-465.434059	117.451006	924.375215	-60.977510	167.149224	858.479919	-66.864815	216.779988	783.546900	-77.705806	213.020080	889.988303	-78.191111	262.514222	678.314915	-97.721683	237.264102	564.324315	-63.938723	234.442724	479.638172	-68.998652	223.160188	391.958619	-80.208114	283.649747	477.910809	-104.977329	198.564415	271.378403	-103.358513	237.900647	284.230842	-177.811553	158.006319	250.783815	-157.031990	419.371882	183.488406	-142.147054	311.605675	169.600664	-72.486243	164.472631	982.034969	-461.842095	254.027958	976.651129	-464.573254	259.453595	1029.522755	-452.761539	338.019838	960.509258	-449.158685	431.663174	889.506856	-422.998306	339.495858	830.966361	-452.793997	279.048279	769.839555	-442.956601	217.453565	711.511344	-428.786924	319.433706	734.539669	-412.851567	128.657620	627.192343	-413.432046	156.836968	612.429928	-330.694152	68.723583	626.815719	-366.987833	266.320402	430.394586	-382.839692	172.318664	485.332585	-444.284631	-229.608280	890.859530	-255.648399	-22.773948	80.478342	-456.468628	-22.842311	80.297646	-56.295182	
752	3.7600	481.144612	1261.696061	-79.200743	508.999628	1248.036186	-433.039243	462.374313	1367.028417	-259.979012	454.640906	1199.570770	-259.167119	459.405662	994.950043	28.806552	668.697819	887.451981	-60.828542	476.958696	1008.489693	-591.344068	656.131745	886.904793	-470.338925	-61.442628	1150.918440	-262.952833	102.494363	1171.034852	-440.717346	88.398654	1158.148280	-105.742410	109.574622	1120.243944	-414.156456	119.719601	1116.659541	-135.879085	-34.448021	1189.927899	-211.721730	-37.702297	1192.687984	-317.268797	43.291270	1036.950076	-81.836081	62.223653	1049.553691	-464.864321	115.520593	923.883273	-59.922405	164.237805	857.132666	-65.445489	212.711436	781.453511	-76.271440	210.656854	887.831655	-76.556428	257.033174	675.727998	-96.306692	231.001501	561.795328	-62.889829	227.997918	477.036595	-68.115721	216.663393	389.485865	-79.448710	277.257622	475.191140	-103.595204	192.189400	269.147545	-103.508424	231.083143	281.483098	-177.094323	151.414393	250.424620	-156.372179	411.197829	176.332822	-142.095217	303.188148	165.078845	-72.417350	165.240618	986.366454	-461.599326	255.079818	982.793152	-464.088982	259.434931	1035.678675	-452.102439	339.461849	968.138547	-448.469003	434.502534	898.686918	-422.912236	342.990437	839.512730	-452.278335	283.444419	777.392074	-442.986267	222.657915	718.298618	-428.631610	324.341082	742.457778	-413.223088	135.143245	631.697818	-413.283251	163.439707	617.112088	-330.599079	75.131191	630.076613	-367.004246	275.927046	437.173609	-382.970654	181.018906	490.560166	-444.312920	-229.614422	890.893454	-255.564492	-22.793380	80.491014	-456.462175	-22.826427	80.291558	-56.275544	
753	3.7650	482.454610	1262.367822	-82.947717	508.261065	1248.773986	-435.410343	463.221296	1367.811270	-262.126425	455.269051	1200.696100	-261.267780	460.673968	996.550705	27.419139	669.024651	887.695993	-61.006126	475.684197	1007.806750	-591.621451	655.599309	887.246286	-470.043905	-61.105711	1151.675678	-261.428849	101.929820	1173.516889	-439.880715	89.897446	1158.535013	-105.505051	109.882955	1121.907448	-413.338492	120.391855	1117.097759	-135.238550	-33.972521	1190.460870	-209.951341	-37.432200	1193.692283	-315.365882	43.137495	1036.855660	-81.003420	62.679709	1052.515936	-464.317699	113.796496	923.592859	-58.999484	161.543430	856.182546	-64.107400	209.011521	779.783152	-74.634531	208.509584	886.264249	-74.914293	252.090661	673.562363	-94.916043	225.079388	559.834681	-61.875803	221.814888	475.185199	-67.219881	210.174848	387.643957	-78.743211	271.365999	473.149764	-102.287432	186.101731	268.810480	-100.831728	224.654417	279.517485	-176.272796	144.876650	251.352829	-155.322013	402.704314	169.523805	-142.091533	294.430340	161.196911	-72.331287	165.869847	990.558376	-461.360513	255.812744	988.557176	-463.828368	259.330073	1041.599298	-451.555401	340.672434	975.170417	-447.668537	436.894188	907.329840	-422.953939	345.964514	847.539794	-451.580999	287.442152	784.843628	-442.355550	227.660508	724.562483	-428.375047	329.060089	749.721855	-413.782385	141.559666	635.454802	-413.077366	169.949106	621.095101	-330.535606	81.455479	632.543366	-366.897593	285.850920	443.674007	-382.941067	189.939441	495.310200	-444.269895	-229.646233	890.933091	-255.496258	-22.803650	80.531139	-456.453741	-22.836126	80.309407	-56.272722	
